HIERARCHY
ROOT Hips
{
  OFFSET 5.72205e-005 65.662 3.42586
  CHANNELS 6 Xposition Yposition Zposition Zrotation Xrotation Yrotation
  JOINT Chest
  {
    OFFSET 0 8.7983 -4.7612
    CHANNELS 6 Xposition Yposition Zposition Zrotation Xrotation Yrotation
    JOINT Chest2
    {
      OFFSET 0 8.0291 0.4195
      CHANNELS 6 Xposition Yposition Zposition Zrotation Xrotation Yrotation
      JOINT Chest3
      {
        OFFSET 0 9.9351 -2.2114
        CHANNELS 6 Xposition Yposition Zposition Zrotation Xrotation Yrotation
        JOINT Neck
        {
          OFFSET 0 22.3885 -0.4656
          CHANNELS 6 Xposition Yposition Zposition Zrotation Xrotation Yrotation
          JOINT Head
          {
            OFFSET -0.0001 12.643 3.4389
            CHANNELS 6 Xposition Yposition Zposition Zrotation Xrotation Yrotation
            End Site
            {
              OFFSET 0.0001 17.6655 0.5274
            }
          }
        }
        JOINT LeftCollar
        {
          OFFSET 2.2603 21.606 7.4023
          CHANNELS 6 Xposition Yposition Zposition Zrotation Xrotation Yrotation
          JOINT LeftShoulder
          {
            OFFSET 13.5163 -1.1332 -5.0146
            CHANNELS 6 Xposition Yposition Zposition Zrotation Xrotation Yrotation
            JOINT LeftElbow
            {
              OFFSET -0.0995 -28.05 -0.2431
              CHANNELS 6 Xposition Yposition Zposition Zrotation Xrotation Yrotation
              JOINT LeftWrist
              {
                OFFSET 0.0679 -23.3996 -0.1402
                CHANNELS 6 Xposition Yposition Zposition Zrotation Xrotation Yrotation
                JOINT LeftFinger1
                {
                  OFFSET 0.7932 -9.069 2.5189
                  CHANNELS 6 Xposition Yposition Zposition Zrotation Xrotation Yrotation
                  JOINT LeftFinger11
                  {
                    OFFSET -0.8272 -3.3923 0.5977
                    CHANNELS 6 Xposition Yposition Zposition Zrotation Xrotation Yrotation
                    JOINT LeftFinger12
                    {
                      OFFSET -0.5649 -2.3158 0.4082
                      CHANNELS 6 Xposition Yposition Zposition Zrotation Xrotation Yrotation
                      End Site
                      {
                        OFFSET -0.4919 -1.6479 0.2673
                      }
                    }
                  }
                }
                JOINT LeftFinger2
                {
                  OFFSET 0.9159 -9.2044 0.2193
                  CHANNELS 6 Xposition Yposition Zposition Zrotation Xrotation Yrotation
                  JOINT LeftFinger21
                  {
                    OFFSET 0.0117 -4.1944 -0.0248
                    CHANNELS 6 Xposition Yposition Zposition Zrotation Xrotation Yrotation
                    JOINT LeftFinger22
                    {
                      OFFSET 0.0071 -2.3249 -0.0142
                      CHANNELS 6 Xposition Yposition Zposition Zrotation Xrotation Yrotation
                      End Site
                      {
                        OFFSET -0.1475 -2.0882 0.0028
                      }
                    }
                  }
                }
                JOINT LeftFinger3
                {
                  OFFSET 0.6113 -8.7231 -2.0637
                  CHANNELS 6 Xposition Yposition Zposition Zrotation Xrotation Yrotation
                  JOINT LeftFinger31
                  {
                    OFFSET -0.1927 -3.8059 -0.2383
                    CHANNELS 6 Xposition Yposition Zposition Zrotation Xrotation Yrotation
                    JOINT LeftFinger32
                    {
                      OFFSET -0.1091 -2.1688 -0.1362
                      CHANNELS 6 Xposition Yposition Zposition Zrotation Xrotation Yrotation
                      End Site
                      {
                        OFFSET -0.2358 -1.9176 -0.0906
                      }
                    }
                  }
                }
                JOINT LeftFinger4
                {
                  OFFSET -0.6151 -8.0947 -3.5641
                  CHANNELS 6 Xposition Yposition Zposition Zrotation Xrotation Yrotation
                  JOINT LeftFinger41
                  {
                    OFFSET -0.4882 -2.341 -0.6462
                    CHANNELS 6 Xposition Yposition Zposition Zrotation Xrotation Yrotation
                    JOINT LeftFinger42
                    {
                      OFFSET -0.3575 -1.7167 -0.4742
                      CHANNELS 6 Xposition Yposition Zposition Zrotation Xrotation Yrotation
                      End Site
                      {
                        OFFSET -0.4187 -1.5237 -0.3496
                      }
                    }
                  }
                }
                JOINT LeftFinger0
                {
                  OFFSET -1.42 -1.8761 1.4223
                  CHANNELS 6 Xposition Yposition Zposition Zrotation Xrotation Yrotation
                  JOINT LeftFinger01
                  {
                    OFFSET -1.1471 -3.4929 2.6334
                    CHANNELS 6 Xposition Yposition Zposition Zrotation Xrotation Yrotation
                    JOINT LeftFinger02
                    {
                      OFFSET -0.823 -2.3 1.6571
                      CHANNELS 6 Xposition Yposition Zposition Zrotation Xrotation Yrotation
                      End Site
                      {
                        OFFSET -0.5822 -1.6914 1.1582
                      }
                    }
                  }
                }
              }
            }
          }
        }
        JOINT RightCollar
        {
          OFFSET -2.2603 21.606 7.4023
          CHANNELS 6 Xposition Yposition Zposition Zrotation Xrotation Yrotation
          JOINT RightShoulder
          {
            OFFSET -13.5187 -1.1334 -5.0155
            CHANNELS 6 Xposition Yposition Zposition Zrotation Xrotation Yrotation
            JOINT RightElbow
            {
              OFFSET 0.0994 -28.0499 -0.2431
              CHANNELS 6 Xposition Yposition Zposition Zrotation Xrotation Yrotation
              JOINT RightWrist
              {
                OFFSET -0.0679 -23.3996 -0.1402
                CHANNELS 6 Xposition Yposition Zposition Zrotation Xrotation Yrotation
                JOINT RightFinger1
                {
                  OFFSET -0.7932 -9.0691 2.5189
                  CHANNELS 6 Xposition Yposition Zposition Zrotation Xrotation Yrotation
                  JOINT RightFinger11
                  {
                    OFFSET 0.8272 -3.3923 0.5977
                    CHANNELS 6 Xposition Yposition Zposition Zrotation Xrotation Yrotation
                    JOINT RightFinger12
                    {
                      OFFSET 0.565 -2.3158 0.4082
                      CHANNELS 6 Xposition Yposition Zposition Zrotation Xrotation Yrotation
                      End Site
                      {
                        OFFSET 0.4919 -1.6479 0.2673
                      }
                    }
                  }
                }
                JOINT RightFinger2
                {
                  OFFSET -0.916 -9.2044 0.2193
                  CHANNELS 6 Xposition Yposition Zposition Zrotation Xrotation Yrotation
                  JOINT RightFinger21
                  {
                    OFFSET -0.0117 -4.1944 -0.0248
                    CHANNELS 6 Xposition Yposition Zposition Zrotation Xrotation Yrotation
                    JOINT RightFinger22
                    {
                      OFFSET -0.0071 -2.3249 -0.0142
                      CHANNELS 6 Xposition Yposition Zposition Zrotation Xrotation Yrotation
                      End Site
                      {
                        OFFSET 0.1475 -2.0882 0.0028
                      }
                    }
                  }
                }
                JOINT RightFinger3
                {
                  OFFSET -0.6113 -8.7231 -2.0637
                  CHANNELS 6 Xposition Yposition Zposition Zrotation Xrotation Yrotation
                  JOINT RightFinger31
                  {
                    OFFSET 0.1927 -3.8059 -0.2383
                    CHANNELS 6 Xposition Yposition Zposition Zrotation Xrotation Yrotation
                    JOINT RightFinger32
                    {
                      OFFSET 0.1091 -2.1688 -0.1362
                      CHANNELS 6 Xposition Yposition Zposition Zrotation Xrotation Yrotation
                      End Site
                      {
                        OFFSET 0.2358 -1.9176 -0.0906
                      }
                    }
                  }
                }
                JOINT RightFinger4
                {
                  OFFSET 0.6151 -8.0947 -3.564
                  CHANNELS 6 Xposition Yposition Zposition Zrotation Xrotation Yrotation
                  JOINT RightFinger41
                  {
                    OFFSET 0.4882 -2.341 -0.6462
                    CHANNELS 6 Xposition Yposition Zposition Zrotation Xrotation Yrotation
                    JOINT RightFinger42
                    {
                      OFFSET 0.3574 -1.7166 -0.4742
                      CHANNELS 6 Xposition Yposition Zposition Zrotation Xrotation Yrotation
                      End Site
                      {
                        OFFSET 0.4187 -1.5237 -0.3496
                      }
                    }
                  }
                }
                JOINT RightFinger0
                {
                  OFFSET 1.4199 -1.8761 1.4221
                  CHANNELS 6 Xposition Yposition Zposition Zrotation Xrotation Yrotation
                  JOINT RightFinger01
                  {
                    OFFSET 1.1472 -3.4929 2.6336
                    CHANNELS 6 Xposition Yposition Zposition Zrotation Xrotation Yrotation
                    JOINT RightFinger02
                    {
                      OFFSET 0.8229 -2.3 1.6571
                      CHANNELS 6 Xposition Yposition Zposition Zrotation Xrotation Yrotation
                      End Site
                      {
                        OFFSET 0.5822 -1.6914 1.1582
                      }
                    }
                  }
                }
              }
            }
          }
        }
      }
    }
  }
  JOINT RightHip
  {
    OFFSET -9.412 3.9771 -0.7758
    CHANNELS 6 Xposition Yposition Zposition Zrotation Xrotation Yrotation
    JOINT RightKnee
    {
      OFFSET -0.7531 -40.938 0
      CHANNELS 6 Xposition Yposition Zposition Zrotation Xrotation Yrotation
      JOINT RightAnkle
      {
        OFFSET 0 -40.1986 0
        CHANNELS 6 Xposition Yposition Zposition Zrotation Xrotation Yrotation
        JOINT RightToe
        {
          OFFSET 0 -4.4182 9.239
          CHANNELS 6 Xposition Yposition Zposition Zrotation Xrotation Yrotation
          End Site
          {
            OFFSET 0 0 6.1981
          }
        }
      }
    }
  }
  JOINT LeftHip
  {
    OFFSET 9.4119 3.9773 -0.7758
    CHANNELS 6 Xposition Yposition Zposition Zrotation Xrotation Yrotation
    JOINT LeftKnee
    {
      OFFSET 0.7532 -40.9383 0
      CHANNELS 6 Xposition Yposition Zposition Zrotation Xrotation Yrotation
      JOINT LeftAnkle
      {
        OFFSET 0 -40.1986 0
        CHANNELS 6 Xposition Yposition Zposition Zrotation Xrotation Yrotation
        JOINT LeftToe
        {
          OFFSET 0 -4.4182 9.239
          CHANNELS 6 Xposition Yposition Zposition Zrotation Xrotation Yrotation
          End Site
          {
            OFFSET 0 0 6.1981
          }
        }
      }
    }
  }
}
MOTION
Frames:	4
Frame Time:	0.0333333
5.72205e-005 65.662 3.42586 0 0 -0 0 8.7983 -4.7612 0 0 -0 0 8.0291 0.4195 0 0 -0 0 9.9351 -2.2114 0 0 -0 0 22.3885 -0.4656 0 0 -0 -0.0001 12.643 3.4389 0 0 -0 2.2603 21.606 7.4023 0 0 -12.5014 13.5163 -1.1332 -5.0146 88.1196 14.2451 10.6914 -0.0995 -28.05 -0.2431 -0.00160068 -0.00239207 0.000740045 0.0679 -23.3996 -0.1402 -8.4365e-005 7.00714e-005 -9.52055e-007 0.7932 -9.069 2.5189 9.93923e-017 -1.98785e-016 -1.59028e-015 -0.8272 -3.3923 0.5977 9.93923e-017 -5.96354e-016 -1.59028e-015 -0.5649 -2.3158 0.4082 -9.93923e-017 -5.96354e-016 -1.59028e-015 0.9159 -9.2044 0.2193 9.93923e-017 -1.98785e-016 -1.59028e-015 0.0117 -4.1944 -0.0248 -0.0128176 0.00232552 8.52707e-005 0.0071 -2.3249 -0.0142 9.93923e-017 5.96354e-016 -0 0.6113 -8.7231 -2.0637 9.93923e-017 -1.98785e-016 -1.59028e-015 -0.1927 -3.8059 -0.2383 -0.0160551 0.00299681 0.000857156 -0.1091 -2.1688 -0.1362 -2.48481e-016 0 3.18055e-015 -0.6151 -8.0947 -3.5641 9.93923e-017 -1.98785e-016 -1.59028e-015 -0.4882 -2.341 -0.6462 -0.0125865 0.0031206 0.00282719 -0.3575 -1.7167 -0.4742 0 1.98785e-016 -0 -1.42 -1.8761 1.4223 9.93923e-017 -1.98785e-016 -1.59028e-015 -1.1471 -3.4929 2.6334 9.93923e-017 -5.96354e-016 -1.59028e-015 -0.823 -2.3 1.6571 -9.93923e-017 -5.96354e-016 -1.59028e-015 -2.2603 21.606 7.4023 -0.865644 0.16582 7.03859 -13.5187 -1.1334 -5.0155 -88.0329 10.2057 -10.5567 0.0994 -28.0499 -0.2431 0.0015593 -0.00248883 -0.000788628 -0.0679 -23.3996 -0.1402 7.87605e-005 4.10553e-005 1.24965e-005 -0.7932 -9.0691 2.5189 -3.97569e-016 -7.95139e-016 3.18055e-015 0.8272 -3.3923 0.5977 -1.98785e-016 -3.97569e-016 3.18055e-015 0.565 -2.3158 0.4082 -1.98785e-016 0 3.18055e-015 -0.916 -9.2044 0.2193 -3.97569e-016 -7.95139e-016 3.18055e-015 -0.0117 -4.1944 -0.0248 0.0129473 0.00231697 -8.70038e-005 -0.0071 -2.3249 -0.0142 9.93923e-017 -7.95139e-016 1.59028e-015 -0.6113 -8.7231 -2.0637 -3.97569e-016 -7.95139e-016 3.18055e-015 0.1927 -3.8059 -0.2383 0.0163314 0.00303369 -0.000872333 0.1091 -2.1688 -0.1362 3.97569e-016 7.95139e-016 -3.18055e-015 0.6151 -8.0947 -3.564 -3.97569e-016 -7.95139e-016 3.18055e-015 0.4882 -2.341 -0.6462 0.0145763 0.00367772 -0.00326275 0.3574 -1.7166 -0.4742 9.93923e-017 -3.97569e-016 -0 1.4199 -1.8761 1.4221 -3.97569e-016 -7.95139e-016 3.18055e-015 1.1472 -3.4929 2.6336 -1.98785e-016 -3.97569e-016 3.18055e-015 0.8229 -2.3 1.6571 -1.98785e-016 0 3.18055e-015 -9.412 3.9771 -0.7758 3.42482 1.32465 -0.0626183 -0.7531 -40.938 0 0.000117508 0.717283 0.000978199 0 -40.1986 0 -3.4257 -2.04197 -0.0604716 8.88178e-016 -4.4182 9.239 6.47761e-025 0 -0 9.4119 3.9773 -0.7758 -3.42483 1.34017 0.0627307 0.7532 -40.9383 -2.22045e-016 -0.000193936 0.682302 -0.0013703 -8.88179e-016 -40.1986 0 3.42574 -2.02253 0.0595886 -8.88178e-016 -4.4182 9.239 -8.45714e-024 0 -7.40531e-025 
0.109655 64.6404 -57.8852 0 0 -0 0 8.7983 -4.7612 0 2.07374 -0 0 8.0291 0.4195 0 4.14748 -0 0 9.9351 -2.2114 0 4.14749 -0 0 22.3885 -0.4656 0.00201552 11.1097 0.0286751 -0.0001 12.643 3.4389 -3.10601e-018 3.18055e-015 -0 2.2603 21.606 7.4023 6.74896 -11.3997 -31.625 13.5163 -1.1332 -5.0146 109.4 22.9223 50.9968 -0.0995 -28.05 -0.2431 -112.482 -77.8857 -117.237 0.0679 -23.3996 -0.1402 13.6754 -5.27861 17.6616 0.7932 -9.069 2.5189 4.0673e-006 1.51645e-005 5.42106e-006 -0.8272 -3.3923 0.5977 -4.79622e-006 4.26025e-006 2.99902e-006 -0.5649 -2.3158 0.4082 5.06361e-006 1.09777e-005 -4.37518e-006 0.9159 -9.2044 0.2193 4.0673e-006 1.51645e-005 5.42106e-006 0.0117 -4.1944 -0.0248 -0.0127903 0.00232872 8.22876e-005 0.0071 -2.3249 -0.0142 -1.82637e-005 -2.48625e-005 -2.09248e-006 0.6113 -8.7231 -2.0637 4.0673e-006 1.51645e-005 5.42106e-006 -0.1927 -3.8059 -0.2383 -0.0159868 0.00299277 0.000858391 -0.1091 -2.1688 -0.1362 -3.35995e-007 5.00834e-006 -8.35842e-006 -0.6151 -8.0947 -3.5641 4.0673e-006 1.51645e-005 5.42106e-006 -0.4882 -2.341 -0.6462 -0.0126322 0.00311703 0.00282612 -0.3575 -1.7167 -0.4742 3.18055e-015 -1.59028e-015 3.18055e-015 -1.42 -1.8761 1.4223 4.0673e-006 1.51645e-005 5.42106e-006 -1.1471 -3.4929 2.6334 -4.79622e-006 4.26025e-006 2.99902e-006 -0.823 -2.3 1.6571 5.06361e-006 1.09777e-005 -4.37518e-006 -2.2603 21.606 7.4023 1.34641 7.57127 7.15074 -13.5187 -1.1334 -5.0155 -49.5535 0.410886 7.37062 0.0994 -28.0499 -0.2431 11.7419 -31.9579 -8.67882 -0.0679 -23.3996 -0.1402 -21.6583 -3.63906 -6.3605 -0.7932 -9.0691 2.5189 -3.69532e-007 1.06843e-006 -7.69259e-007 0.8272 -3.3923 0.5977 -7.45443e-015 -3.18055e-015 2.5842e-015 0.565 -2.3158 0.4082 -7.45443e-015 -6.36111e-015 7.95139e-016 -0.916 -9.2044 0.2193 -3.69532e-007 1.06843e-006 -7.69259e-007 -0.0117 -4.1944 -0.0248 0.01292 0.00232139 -8.87925e-005 -0.0071 -2.3249 -0.0142 1.3418e-014 3.18055e-015 -3.77691e-015 -0.6113 -8.7231 -2.0637 -3.69532e-007 1.06843e-006 -7.69259e-007 0.1927 -3.8059 -0.2383 0.0163004 0.00303057 -0.000874875 0.1091 -2.1688 -0.1362 8.46721e-006 1.24823e-006 2.01371e-006 0.6151 -8.0947 -3.564 -3.69532e-007 1.06843e-006 -7.69259e-007 0.4882 -2.341 -0.6462 0.0145311 0.00367194 -0.00325259 0.3574 -1.7166 -0.4742 2.5842e-015 0 1.19271e-015 1.4199 -1.8761 1.4221 -3.69532e-007 1.06843e-006 -7.69259e-007 1.1472 -3.4929 2.6336 -7.45443e-015 -3.18055e-015 2.5842e-015 0.8229 -2.3 1.6571 -7.45443e-015 -6.36111e-015 7.95139e-016 -9.412 3.9771 -0.7758 -1.22103 -0.51673 -0.231247 -0.7531 -40.938 7.10543e-015 -0.000139202 6.52386 -0.471156 1.77636e-015 -40.1986 0 -3.28389 18.4125 0.218355 1.77636e-015 -4.4182 9.239 1.70168e-006 -3.51346e-006 9.82916e-007 9.4119 3.9773 -0.7758 18.7363 -31.6492 18.8867 0.7532 -40.9383 -3.55271e-015 -0.0334059 79.909 1.70409 -7.10543e-015 -40.1986 -7.10543e-015 3.04664 0.709388 1.0965 7.10543e-015 -4.4182 9.239 -2.93812e-006 5.3413e-007 -2.95937e-006 
0.0796618 64.1538 -85.4489 0 0 -0 0 8.7983 -4.7612 0 3.0069 -0 0 8.0291 0.4195 0 6.0138 -0 0 9.9351 -2.2114 0 6.0138 -0 0 22.3885 -0.4656 0.0020497 16.1092 -0.102502 -0.0001 12.643 3.4389 3.44969e-009 5.22883e-012 -5.70875e-009 2.2603 21.606 7.4023 7.29623 -15.4895 -40.7766 13.5163 -1.1332 -5.0146 119.897 26.13 68.9455 -0.0995 -28.05 -0.2431 -175.991 -42.9977 177.003 0.0679 -23.3996 -0.1402 20.0152 -7.64134 25.79 0.7932 -9.069 2.5189 3.18055e-015 -4.77083e-015 -3.18055e-015 -0.8272 -3.3923 0.5977 -6.36111e-015 -4.77083e-015 -6.36111e-015 -0.5649 -2.3158 0.4082 0 1.59028e-015 -0 0.9159 -9.2044 0.2193 3.18055e-015 -4.77083e-015 -3.18055e-015 0.0117 -4.1944 -0.0248 -0.0128665 0.00234621 9.20449e-005 0.0071 -2.3249 -0.0142 9.54166e-015 9.54166e-015 -3.18055e-015 0.6113 -8.7231 -2.0637 3.18055e-015 -4.77083e-015 -3.18055e-015 -0.1927 -3.8059 -0.2383 -0.0160796 0.00299941 0.000857569 -0.1091 -2.1688 -0.1362 3.18055e-015 -1.59028e-015 -0 -0.6151 -8.0947 -3.5641 3.18055e-015 -4.77083e-015 -3.18055e-015 -0.4882 -2.341 -0.6462 -0.0126571 0.0031462 0.00284483 -0.3575 -1.7167 -0.4742 9.54166e-015 1.59028e-015 1.27222e-014 -1.42 -1.8761 1.4223 3.18055e-015 -4.77083e-015 -3.18055e-015 -1.1471 -3.4929 2.6334 -6.36111e-015 -4.77083e-015 -6.36111e-015 -0.823 -2.3 1.6571 0 1.59028e-015 -0 -2.2603 21.606 7.4023 2.33699 10.9038 7.20224 -13.5187 -1.1334 -5.0155 -32.6605 -4.93336 15.8765 0.0994 -28.0499 -0.2431 19.015 -46.1628 -10.056 -0.0679 -23.3996 -0.1402 -31.472 -4.99713 -9.63302 -0.7932 -9.0691 2.5189 -4.57205e-015 -9.54166e-015 -3.97569e-016 0.8272 -3.3923 0.5977 -2.78299e-015 -6.36111e-015 -1.98785e-015 0.565 -2.3158 0.4082 2.98177e-015 -3.18055e-015 -1.19271e-015 -0.916 -9.2044 0.2193 -4.57205e-015 -9.54166e-015 -3.97569e-016 -0.0117 -4.1944 -0.0248 0.0129826 0.00232475 -8.22224e-005 -0.0071 -2.3249 -0.0142 -7.95139e-016 0 -3.97569e-016 -0.6113 -8.7231 -2.0637 -4.57205e-015 -9.54166e-015 -3.97569e-016 0.1927 -3.8059 -0.2383 0.0163287 0.00303793 -0.000876217 0.1091 -2.1688 -0.1362 1.98785e-016 -3.18055e-015 7.95139e-016 0.6151 -8.0947 -3.564 -4.57205e-015 -9.54166e-015 -3.97569e-016 0.4882 -2.341 -0.6462 0.0146072 0.00367743 -0.00326755 0.3574 -1.7166 -0.4742 -4.63147e-006 5.37779e-006 1.43863e-006 1.4199 -1.8761 1.4221 -4.57205e-015 -9.54166e-015 -3.97569e-016 1.1472 -3.4929 2.6336 -2.78299e-015 -6.36111e-015 -1.98785e-015 0.8229 -2.3 1.6571 2.98177e-015 -3.18055e-015 -1.19271e-015 -9.412 3.9771 -0.7758 -3.25463 -2.42028 -0.297272 -0.7531 -40.938 1.42109e-014 -8.31678e-005 11.2355 -0.703783 0 -40.1986 -1.42109e-014 -3.31521 26.5946 0.314568 0 -4.4182 9.239 -1.39288e-006 -2.86016e-006 5.64091e-007 9.4119 3.9773 -0.7758 36.4774 -42.9429 33.0299 0.7532 -40.9383 7.10543e-015 -179.97 65.572 -177.089 0 -40.1986 -7.10543e-015 2.7037 1.81413 1.91748 7.10543e-015 -4.4182 9.239 -3.18055e-015 6.43242e-008 -0 
0.0931746 64.2622 -79.326 0 0 -0 0 8.7983 -4.7612 0 2.79953 -0 0 8.0291 0.4195 0 5.59905 -0 0 9.9351 -2.2114 0 5.59905 -0 0 22.3885 -0.4656 -2.99976e-005 14.9983 -0.393256 -0.0001 12.643 3.4389 1.26519e-009 -2.44585e-012 -2.98021e-008 2.2603 21.606 7.4023 7.30064 -14.6673 -38.7051 13.5163 -1.1332 -5.0146 117.502 25.3092 64.969 -0.0995 -28.05 -0.2431 -171.311 -51.9531 -177.906 0.0679 -23.3996 -0.1402 18.7677 -7.14597 23.9885 0.7932 -9.069 2.5189 4.08405e-006 1.33984e-005 9.41233e-006 -0.8272 -3.3923 0.5977 3.57817e-006 -4.51688e-006 -1.25555e-006 -0.5649 -2.3158 0.4082 1.59028e-015 1.59028e-015 -6.36111e-015 0.9159 -9.2044 0.2193 4.08405e-006 1.33984e-005 9.41233e-006 0.0117 -4.1944 -0.0248 -0.0128691 0.00233403 8.95764e-005 0.0071 -2.3249 -0.0142 4.77083e-015 0 6.36111e-015 0.6113 -8.7231 -2.0637 4.08405e-006 1.33984e-005 9.41233e-006 -0.1927 -3.8059 -0.2383 -0.0159663 0.00298039 0.000852217 -0.1091 -2.1688 -0.1362 -3.18055e-015 -3.18055e-015 -0 -0.6151 -8.0947 -3.5641 4.08405e-006 1.33984e-005 9.41233e-006 -0.4882 -2.341 -0.6462 -0.0125212 0.00311573 0.00281978 -0.3575 -1.7167 -0.4742 -6.78639e-006 3.12808e-006 4.24531e-006 -1.42 -1.8761 1.4223 4.08405e-006 1.33984e-005 9.41233e-006 -1.1471 -3.4929 2.6334 3.57817e-006 -4.51688e-006 -1.25555e-006 -0.823 -2.3 1.6571 1.59028e-015 1.59028e-015 -6.36111e-015 -2.2603 21.606 7.4023 2.11713 10.1633 7.1907 -13.5187 -1.1334 -5.0155 -36.3952 -3.69829 13.9539 0.0994 -28.0499 -0.2431 17.1763 -43.0365 -9.98621 -0.0679 -23.3996 -0.1402 -29.2868 -4.71419 -8.88641 -0.7932 -9.0691 2.5189 2.02895e-006 -2.16008e-006 -2.59259e-006 0.8272 -3.3923 0.5977 -2.04077e-007 -9.54166e-015 -3.74879e-007 0.565 -2.3158 0.4082 -3.66157e-006 -5.44881e-007 -4.06441e-007 -0.916 -9.2044 0.2193 2.02895e-006 -2.16008e-006 -2.59259e-006 -0.0117 -4.1944 -0.0248 0.0129502 0.00231353 -8.54362e-005 -0.0071 -2.3249 -0.0142 -3.25379e-006 -6.20219e-007 3.43188e-007 -0.6113 -8.7231 -2.0637 2.02895e-006 -2.16008e-006 -2.59259e-006 0.1927 -3.8059 -0.2383 0.0162785 0.00302664 -0.000870526 0.1091 -2.1688 -0.1362 -4.5672e-006 -6.38508e-006 1.75785e-006 0.6151 -8.0947 -3.564 2.02895e-006 -2.16008e-006 -2.59259e-006 0.4882 -2.341 -0.6462 0.0145337 0.00367019 -0.00325513 0.3574 -1.7166 -0.4742 2.04055e-007 -9.54166e-015 3.74892e-007 1.4199 -1.8761 1.4221 2.02895e-006 -2.16008e-006 -2.59259e-006 1.1472 -3.4929 2.6336 -2.04077e-007 -9.54166e-015 -3.74879e-007 0.8229 -2.3 1.6571 -3.66157e-006 -5.44881e-007 -4.06441e-007 -9.412 3.9771 -0.7758 -2.80757 -1.9644 -0.282866 -0.7531 -40.938 0 -5.38164e-005 10.1293 -0.650556 -1.77636e-015 -40.1986 -1.42109e-014 -3.30171 24.8027 0.292518 0 -4.4182 9.239 -3.56117e-007 2.88562e-006 -2.31132e-007 9.4119 3.9773 -0.7758 32.3599 -40.6265 29.859 0.7532 -40.9383 -7.10543e-015 -179.986 73.2364 -177.428 0 -40.1986 0 2.7989 1.67366 1.68463 0 -4.4182 9.239 -5.50663e-006 -1.92268e-005 -5.12049e-006 
